<?xml version="1.0"?>
<!DOCTYPE svg PUBLIC "-//W3C//DTD SVG 1.1//EN" "http://www.w3.org/Graphics/SVG/1.1/DTD/svg11.dtd">
<svg xmlns="http://www.w3.org/2000/svg" xmlns:xl="http://www.w3.org/1999/xlink" version="1.1" viewBox="53 82 99 219" width="99pt" height="219pt"><metadata xmlns:dc="http://purl.org/dc/elements/1.1/"><dc:date>2014-11-24 09:49Z</dc:date><!-- Produced by OmniGraffle Professional 5.3.4 --></metadata><defs><marker orient="auto" overflow="visible" markerUnits="strokeWidth" id="StickArrow_Marker" viewBox="-1 -2 4 4" markerWidth="4" markerHeight="4" color="white"><g><path d="M 1.8666667 0 L 0 0 M 0 -.7 L 1.8666667 0 L 0 .7" fill="none" stroke="currentColor" stroke-width="1"/></g></marker></defs><g stroke="none" stroke-opacity="1" stroke-dasharray="none" fill="none" fill-opacity="1"><title>Canvas 1</title><g><title>Layer 1</title><rect x="55.760315" y="84.661743" width="94" height="40" fill="white"/><rect x="55.760315" y="84.661743" width="94" height="40" stroke="white" stroke-linecap="round" stroke-linejoin="round" stroke-width=".5"/><rect x="55.760315" y="142.66174" width="94" height="40" fill="white"/><rect x="55.760315" y="142.66174" width="94" height="40" stroke="white" stroke-linecap="round" stroke-linejoin="round" stroke-width=".5"/><rect x="55.760315" y="200.66174" width="94" height="40" fill="white"/><rect x="55.760315" y="200.66174" width="94" height="40" stroke="white" stroke-linecap="round" stroke-linejoin="round" stroke-width=".5"/><rect x="55.760315" y="258.66174" width="94" height="40" fill="white"/><rect x="55.760315" y="258.66174" width="94" height="40" stroke="white" stroke-linecap="round" stroke-linejoin="round" stroke-width=".5"/><path d="M 102.760315 124.66174 L 102.760315 138.96175 L 102.760315 128.36174 L 102.760315 132.36174" marker-end="url(#StickArrow_Marker)" stroke="white" stroke-linecap="square" stroke-linejoin="miter" stroke-width="3"/><line x1="102.760315" y1="182.66174" x2="102.760315" y2="190.36401" marker-end="url(#StickArrow_Marker)" stroke="white" stroke-linecap="square" stroke-linejoin="miter" stroke-width="3"/><path d="M 102.760315 240.66174 L 102.760315 254.96175 L 102.760315 244.36174 L 102.760315 248.36174" marker-end="url(#StickArrow_Marker)" stroke="white" stroke-linecap="square" stroke-linejoin="miter" stroke-width="3"/></g></g></svg>
