<?xml version="1.0"?>
<!DOCTYPE svg PUBLIC "-//W3C//DTD SVG 1.1//EN" "http://www.w3.org/Graphics/SVG/1.1/DTD/svg11.dtd">
<svg xmlns="http://www.w3.org/2000/svg" xmlns:xl="http://www.w3.org/1999/xlink" version="1.1" viewBox="203 82 216 219" width="18pc" height="219pt"><metadata xmlns:dc="http://purl.org/dc/elements/1.1/"><dc:date>2014-11-24 09:49Z</dc:date><!-- Produced by OmniGraffle Professional 5.3.4 --></metadata><defs><marker orient="auto" overflow="visible" markerUnits="strokeWidth" id="StickArrow_Marker" viewBox="-1 -2 4 4" markerWidth="4" markerHeight="4" color="white"><g><path d="M 1.8666667 0 L 0 0 M 0 -.7 L 1.8666667 0 L 0 .7" fill="none" stroke="currentColor" stroke-width="1"/></g></marker></defs><g stroke="none" stroke-opacity="1" stroke-dasharray="none" fill="none" fill-opacity="1"><title>Canvas 1</title><g><title>Layer 1</title><rect x="205.52063" y="84.661743" width="94" height="40" fill="white"/><rect x="205.52063" y="84.661743" width="94" height="40" stroke="white" stroke-linecap="round" stroke-linejoin="round" stroke-width=".5"/><rect x="322.04126" y="142.66174" width="94" height="40" fill="white"/><rect x="322.04126" y="142.66174" width="94" height="40" stroke="white" stroke-linecap="round" stroke-linejoin="round" stroke-width=".5"/><rect x="322.04126" y="214.32349" width="94" height="40" fill="white"/><rect x="322.04126" y="214.32349" width="94" height="40" stroke="white" stroke-linecap="round" stroke-linejoin="round" stroke-width=".5"/><rect x="205.52063" y="258.66174" width="94" height="40" fill="white"/><rect x="205.52063" y="258.66174" width="94" height="40" stroke="white" stroke-linecap="round" stroke-linejoin="round" stroke-width=".5"/><rect x="205.52063" y="171.66174" width="94" height="40" fill="white"/><rect x="205.52063" y="171.66174" width="94" height="40" stroke="white" stroke-linecap="round" stroke-linejoin="round" stroke-width=".5"/><path d="M 252.52063 124.66174 L 252.52063 138.96175 L 252.52063 157.36174 L 252.52063 161.36174" marker-end="url(#StickArrow_Marker)" stroke="white" stroke-linecap="square" stroke-linejoin="miter" stroke-width="3"/><path d="M 252.52063 211.66174 L 252.52063 225.96175 L 252.52063 244.36174 L 252.52063 248.36174" marker-end="url(#StickArrow_Marker)" stroke="white" stroke-linecap="square" stroke-linejoin="miter" stroke-width="3"/><path d="M 299.52063 104.661743 L 313.82062 104.661743 L 369.04126 104.661743 L 369.04126 128.36174 L 369.04126 132.36174" marker-end="url(#StickArrow_Marker)" stroke="white" stroke-linecap="square" stroke-linejoin="miter" stroke-width="3"/><path d="M 369.04126 182.66174 L 369.04126 196.96175 L 369.04126 200.02348 L 369.04126 204.02348" marker-end="url(#StickArrow_Marker)" stroke="white" stroke-linecap="square" stroke-linejoin="miter" stroke-width="3"/></g></g></svg>
